<svg version="1.1" id="Layer_1" xmlns="http://www.w3.org/2000/svg" xmlns:xlink="http://www.w3.org/1999/xlink" x="0px" y="0px"
	 width="100%" viewBox="0 0 2000 2000" xml:space="preserve">
<path fill="#000000" opacity="000000" stroke="none"
	d="
M1306.000000,2001.000000 
	C872.166687,2001.000000 438.833344,2000.994263 5.500021,2001.092896 
	C1.750948,2001.093750 0.906737,2000.249023 0.907281,1996.500000 
	C1.003694,1332.833374 1.003694,669.166687 0.907281,5.500014 
	C0.906737,1.751003 1.751000,0.906735 5.500013,0.907280 
	C669.166687,1.003704 1332.833374,1.003704 1996.500000,0.907280 
	C2000.249023,0.906735 2001.093262,1.751001 2001.092651,5.500013 
	C2000.996338,669.166687 2000.996216,1332.833374 2001.092651,1996.500000 
	C2001.093140,2000.249023 2000.249146,2001.095093 1996.500000,2001.093384 
	C1766.500000,2000.989258 1536.500000,2001.000000 1306.000000,2001.000000 
z"/>
<path fill="#FFFFFF" opacity="1.000000" stroke="none" 
	d="
M1163.000000,564.000000 
	C1225.322510,564.000000 1287.145264,564.073853 1348.967529,563.925476 
	C1358.975220,563.901489 1371.739258,573.358643 1373.150635,584.729980 
	C1373.721802,589.331848 1373.987793,593.876343 1373.988281,598.466309 
	C1374.002686,745.607361 1373.978516,892.748352 1374.040161,1039.889404 
	C1374.045166,1051.861328 1365.433960,1063.734985 1355.082153,1066.536011 
	C1353.404175,1066.989990 1351.828491,1066.972656 1350.219482,1066.972900 
	C1117.426758,1067.001465 884.633972,1066.969482 651.841309,1067.086060 
	C639.592163,1067.092163 627.983643,1053.802612 627.986206,1042.343750 
	C628.009705,937.861938 628.000000,833.380127 628.000000,728.898315 
	C628.000000,682.573059 627.967957,636.247742 628.024048,589.922546 
	C628.036987,579.277954 633.469788,571.623413 642.315735,566.361450 
	C645.650330,564.377808 649.604675,563.963623 653.588257,563.964600 
	C823.225525,564.005798 992.862732,564.000000 1163.000000,564.000000 
z"/>
<path fill="#FFFFFF" opacity="1.000000" stroke="none" 
	d="
M474.816223,1182.685303 
	C482.665802,1178.558228 490.276672,1174.663208 498.869354,1173.592773 
	C522.061768,1170.703613 543.673035,1173.579712 560.394226,1192.009888 
	C566.015564,1198.205566 568.846375,1205.976074 570.001038,1214.288696 
	C570.350464,1216.804199 569.908997,1218.553101 566.728210,1218.025024 
	C565.755005,1217.863403 564.732361,1218.000366 563.732361,1217.999878 
	C559.399109,1217.998047 554.661743,1219.091797 550.846436,1217.685059 
	C547.045837,1216.283569 547.914246,1210.650391 545.760010,1207.274292 
	C541.145264,1200.042480 534.613525,1195.725830 526.369446,1193.790283 
	C512.491394,1190.532104 499.200256,1190.631592 486.558838,1198.740967 
	C472.437042,1207.800049 469.463867,1229.446655 488.630493,1239.299683 
	C499.928131,1245.107422 512.205505,1247.517212 524.190247,1251.038940 
	C538.174316,1255.148193 552.088379,1259.532349 562.346680,1270.852539 
	C568.423340,1277.558228 571.572876,1285.389893 572.069519,1294.507568 
	C572.682739,1305.764526 570.669067,1316.343628 563.820251,1325.338013 
	C554.978149,1336.949951 542.770142,1343.343018 528.507629,1346.014282 
	C519.134033,1347.769897 509.601990,1347.611694 500.283691,1346.815796 
	C477.848328,1344.899292 456.129272,1333.517334 450.180237,1306.491089 
	C448.974884,1301.015259 449.704254,1300.001953 455.464661,1300.000000 
	C456.131317,1299.999878 456.797974,1300.000000 457.464630,1300.000122 
	C461.631256,1300.000610 466.055145,1299.118774 469.895630,1300.238037 
	C474.142273,1301.475952 472.556396,1306.877563 474.414886,1310.213257 
	C479.685425,1319.672852 487.988190,1324.181519 497.926117,1326.434937 
	C512.420288,1329.721313 526.290833,1328.375854 538.966248,1319.989746 
	C550.742737,1312.198364 555.119385,1298.122314 548.039673,1286.372437 
	C543.796265,1279.329712 536.390015,1276.776123 529.393066,1274.116211 
	C518.148987,1269.841675 506.330719,1267.284424 494.833618,1263.787476 
	C484.542236,1260.657104 474.451569,1256.217041 466.452301,1248.760132 
	C456.770081,1239.734131 453.173737,1228.579712 454.722931,1214.983521 
	C456.344696,1200.750366 463.724121,1191.010620 474.816223,1182.685303 
z"/>
<path fill="#FFFFFF" opacity="1.000000" stroke="none" 
	d="
M285.710815,1215.789062 
	C278.689026,1227.193726 275.777130,1239.268555 274.776215,1252.297119 
	C273.591858,1267.713745 275.513214,1282.296631 281.794647,1296.317139 
	C288.810028,1311.975708 300.938843,1322.002686 317.493408,1325.640991 
	C339.984985,1330.584351 367.994263,1320.393311 374.922638,1292.782959 
	C375.315735,1291.216431 375.860046,1290.985840 377.142578,1290.990967 
	C382.973999,1291.014038 388.806366,1291.057129 394.636719,1290.974243 
	C397.126953,1290.938965 397.109680,1291.843018 396.617188,1293.996094 
	C393.790039,1306.356323 388.422577,1317.541138 379.678009,1326.589966 
	C370.687653,1335.893188 359.519958,1342.104248 346.763580,1344.953491 
	C331.487396,1348.365723 316.396637,1347.745361 301.713745,1341.986328 
	C294.007965,1338.963867 287.012207,1334.855347 280.689697,1329.327026 
	C265.889740,1316.386475 257.907776,1299.580566 255.303375,1280.830933 
	C251.930664,1256.549927 252.534760,1232.286377 264.991516,1209.877563 
	C275.292603,1191.346558 290.407959,1178.326538 311.164062,1174.314331 
	C332.406494,1170.208130 353.403534,1172.022949 371.600128,1185.963867 
	C384.432953,1195.795410 393.202545,1208.225220 395.930573,1224.422485 
	C396.122925,1225.564575 397.462738,1226.333496 396.532684,1227.999146 
	C390.344849,1227.999146 383.871063,1227.974365 377.397705,1228.017822 
	C375.898865,1228.027832 375.396729,1227.713379 374.894714,1225.982788 
	C369.677826,1207.998779 357.691650,1197.508667 339.297150,1193.937866 
	C322.021454,1190.584351 306.776154,1194.540161 293.614349,1206.054199 
	C290.607178,1208.684814 288.500824,1212.344971 285.710815,1215.789062 
z"/>
<path fill="#FFFFFF" opacity="1.000000" stroke="none" 
	d="
M721.696228,1236.688477 
	C723.584351,1222.851929 729.376953,1211.093018 737.252075,1200.319092 
	C746.981689,1187.007935 759.963684,1177.840942 776.059082,1174.600830 
	C807.287170,1168.314331 840.780212,1175.845215 857.936279,1210.939087 
	C860.463257,1216.107910 861.926453,1221.731934 862.854187,1227.998657 
	C856.269897,1227.998657 849.681702,1227.981812 843.093628,1228.012817 
	C841.758362,1228.019165 841.292358,1227.699219 840.922485,1226.167603 
	C835.947754,1205.571045 816.875366,1193.412720 796.777344,1192.830566 
	C782.467712,1192.416016 770.101746,1196.597290 759.804688,1205.950562 
	C751.186035,1213.779175 745.968567,1224.115967 743.053711,1235.415527 
	C741.013855,1243.322998 739.999207,1251.515503 740.148193,1259.601318 
	C740.471313,1277.131592 743.636780,1294.105469 755.082397,1308.228149 
	C763.248474,1318.304321 774.009888,1324.034180 786.936646,1326.089844 
	C796.892395,1327.673096 806.118103,1326.032471 815.337524,1322.338013 
	C828.676270,1316.992798 836.716919,1307.035522 840.808655,1293.729370 
	C841.529236,1291.386108 842.053345,1290.920410 844.161682,1290.963745 
	C849.490417,1291.073486 854.823669,1291.048462 860.153687,1290.977051 
	C862.413269,1290.946655 863.310974,1291.148438 862.636597,1294.016113 
	C859.733765,1306.359619 854.409973,1317.547974 845.670349,1326.598755 
	C836.683044,1335.906006 825.518250,1342.140869 812.755188,1344.944336 
	C797.665222,1348.258911 782.841919,1347.615845 768.174255,1342.113159 
	C752.733826,1336.320679 741.191833,1326.229858 732.733398,1312.298462 
	C723.566711,1297.200439 719.848389,1280.700562 719.992676,1263.185059 
	C720.064575,1254.448608 719.588318,1245.685669 721.696228,1236.688477 
z"/>
<path fill="#FFFFFF" opacity="1.000000" stroke="none" 
	d="
M1239.120605,1347.000000 
	C1212.616699,1346.022949 1192.672119,1329.708374 1186.015381,1304.150269 
	C1183.994385,1296.391113 1182.752075,1288.380615 1183.146240,1280.457642 
	C1184.080688,1261.673706 1188.128784,1243.780396 1202.474731,1230.093384 
	C1211.264526,1221.707397 1221.655884,1217.103394 1233.998779,1215.809937 
	C1248.002197,1214.342529 1260.508423,1217.181885 1272.256714,1224.662598 
	C1284.838135,1232.673706 1290.871460,1244.863770 1293.893799,1258.755981 
	C1295.668945,1266.916016 1296.135010,1275.304688 1296.108887,1283.715454 
	C1296.098022,1287.169067 1295.328613,1288.112061 1291.772705,1288.091064 
	C1263.941284,1287.926758 1236.108398,1288.023193 1208.276123,1287.963501 
	C1205.540039,1287.957642 1203.290894,1287.859741 1203.979858,1291.706787 
	C1205.764648,1301.671143 1208.190674,1311.250488 1216.015137,1318.573975 
	C1229.880737,1331.551636 1256.287720,1333.336060 1269.586548,1316.946167 
	C1270.002197,1316.433838 1270.512573,1315.985840 1270.861206,1315.433594 
	C1275.170776,1308.607788 1275.160889,1308.617554 1282.784180,1311.005005 
	C1285.078125,1311.723511 1287.365723,1312.554077 1289.720581,1312.966431 
	C1294.212402,1313.752686 1294.014648,1315.756104 1292.306274,1319.350098 
	C1284.922363,1334.883789 1272.072021,1342.669189 1255.842773,1346.023438 
	C1250.456055,1347.136841 1245.033081,1346.986694 1239.120605,1347.000000 
z"/>
<path fill="#FFFFFF" opacity="1.000000" stroke="none" 
	d="
M1449.821777,1312.017700 
	C1457.538940,1315.034302 1457.769897,1315.161499 1453.938110,1322.122925 
	C1446.279419,1336.037109 1433.968140,1343.302856 1418.632080,1346.005737 
	C1407.335449,1347.996826 1396.156982,1347.608643 1385.252441,1343.957397 
	C1367.513428,1338.017944 1355.761963,1325.749023 1350.674561,1308.018921 
	C1343.732178,1283.824585 1344.411987,1260.053589 1359.024170,1238.333496 
	C1368.098755,1224.844604 1380.859253,1217.571655 1397.264648,1215.862183 
	C1415.144897,1213.999023 1430.765991,1218.262695 1443.395508,1231.068115 
	C1452.150024,1239.944458 1456.111206,1251.377075 1458.049072,1263.590454 
	C1459.118774,1270.331787 1458.717163,1277.092285 1459.090454,1283.836060 
	C1459.293945,1287.512817 1457.997070,1288.096924 1454.647217,1288.079224 
	C1427.817993,1287.937500 1400.987793,1288.000000 1374.157837,1288.000000 
	C1367.424805,1288.000000 1367.340576,1288.008789 1368.020264,1294.527588 
	C1368.951294,1303.457031 1372.240845,1311.604004 1378.552490,1317.890503 
	C1391.948975,1331.234131 1415.386719,1332.890991 1430.250610,1320.168945 
	C1431.955444,1318.709595 1433.901367,1316.887695 1434.479736,1314.873291 
	C1436.481201,1307.900879 1440.825439,1309.116089 1445.701782,1310.965942 
	C1446.878174,1311.412109 1447.961182,1312.432617 1449.821777,1312.017700 
z"/>
<path fill="#FFFFFF" opacity="1.000000" stroke="none" 
	d="
M1016.997925,1341.802979 
	C1017.132080,1344.061157 1015.928406,1344.007690 1014.705078,1344.004517 
	C1009.375793,1343.990845 1004.043335,1343.891968 998.718750,1344.050415 
	C996.467773,1344.117554 995.843628,1343.348145 995.959412,1341.207642 
	C996.121033,1338.218750 996.027954,1335.213867 995.979126,1332.217041 
	C995.967224,1331.484253 996.375366,1330.487061 995.247375,1330.144043 
	C994.220215,1329.831543 993.653015,1330.689575 993.261414,1331.294312 
	C987.519531,1340.159668 978.752625,1344.043213 968.975830,1346.616821 
	C951.454773,1351.228516 928.324646,1343.938599 919.583008,1328.680176 
	C909.665588,1311.369263 910.829346,1285.256958 936.975159,1276.076416 
	C946.749634,1272.644165 957.040039,1271.414429 967.267395,1269.891602 
	C975.074768,1268.729004 983.038147,1268.716309 990.714233,1266.209717 
	C994.223755,1265.063599 995.685791,1262.997070 995.920654,1260.057129 
	C996.978699,1246.813354 990.008484,1235.360107 974.375916,1233.859375 
	C958.601746,1232.345093 946.621094,1237.672852 938.042236,1250.858643 
	C937.460266,1251.753174 937.477783,1252.952515 935.815491,1252.319580 
	C930.582581,1250.326660 925.318726,1248.410645 920.029785,1246.571533 
	C917.912659,1245.835205 918.057007,1244.988525 918.919556,1243.088013 
	C925.784363,1227.962158 938.118164,1220.350952 953.783630,1216.968140 
	C966.448669,1214.233276 978.833069,1214.748657 991.131409,1218.952881 
	C1006.159546,1224.090332 1015.040222,1237.224854 1016.072754,1253.126831 
	C1017.981140,1282.518677 1016.457947,1311.925903 1016.997925,1341.802979 
z"/>
<path fill="#FFFFFF" opacity="1.000000" stroke="none" 
	d="
M1703.889404,1340.010254 
	C1690.519897,1347.013916 1676.768066,1348.042725 1662.342285,1346.206421 
	C1653.229736,1345.046509 1645.325195,1341.907227 1637.975464,1336.566895 
	C1630.750244,1331.316895 1627.311279,1323.931274 1624.999146,1315.736328 
	C1624.781006,1314.963257 1624.569336,1314.188354 1624.334351,1313.341309 
	C1629.432129,1311.932007 1634.658569,1310.365967 1639.954956,1309.090088 
	C1641.773560,1308.652100 1643.449341,1308.756104 1644.726562,1311.127930 
	C1653.303833,1327.056396 1662.556152,1331.110596 1681.496704,1328.052734 
	C1689.262695,1326.798828 1695.402466,1323.515991 1699.834839,1316.787354 
	C1703.912476,1310.596924 1701.713013,1302.463257 1695.887939,1297.982178 
	C1688.001221,1291.915283 1678.234131,1291.333252 1669.121948,1289.149170 
	C1658.405640,1286.580444 1647.853638,1284.020264 1639.025635,1276.992920 
	C1634.197754,1273.149780 1631.306274,1267.986450 1629.677979,1262.157837 
	C1627.391968,1253.974976 1627.581055,1245.848633 1631.412964,1238.111694 
	C1637.025391,1226.779785 1646.793091,1220.333496 1658.526001,1217.344360 
	C1673.143677,1213.620117 1687.799561,1213.817139 1701.548828,1221.217163 
	C1710.681396,1226.132446 1716.298096,1234.093872 1719.997925,1243.562134 
	C1720.697510,1245.352539 1721.069214,1246.983398 1718.200439,1247.015747 
	C1715.253540,1247.049072 1712.130005,1248.076660 1709.911499,1249.283081 
	C1704.257935,1252.357422 1701.805664,1249.986206 1698.985352,1245.506104 
	C1692.317139,1234.913208 1681.953369,1231.401001 1669.329956,1233.815430 
	C1661.283203,1235.354736 1654.320679,1237.968384 1650.247192,1245.443115 
	C1646.952148,1251.489136 1649.350342,1258.953003 1655.064087,1263.051880 
	C1662.807129,1268.606323 1672.064453,1269.561279 1680.831909,1271.937622 
	C1690.567139,1274.576416 1700.638550,1276.194092 1709.206787,1282.027954 
	C1727.194946,1294.275757 1726.744263,1318.773926 1713.937866,1331.585327 
	C1710.906494,1334.617798 1707.897339,1337.646240 1703.889404,1340.010254 
z"/>
<path fill="#FFFFFF" opacity="1.000000" stroke="none" 
	d="
M1099.000000,1225.897705 
	C1099.000000,1228.565796 1099.000000,1230.757324 1099.000000,1232.948975 
	C1104.938477,1225.157349 1111.578003,1219.559326 1120.629761,1216.724121 
	C1127.407593,1214.601196 1134.245605,1215.175781 1141.099609,1214.981934 
	C1143.196777,1214.922607 1143.004883,1216.260254 1143.002808,1217.607910 
	C1142.994507,1222.935303 1142.868408,1228.267456 1143.054688,1233.588257 
	C1143.146851,1236.218750 1141.700073,1236.330811 1139.962769,1235.937500 
	C1128.925171,1233.438477 1118.677246,1234.969971 1109.664917,1242.081421 
	C1104.107178,1246.466797 1100.631104,1252.248901 1100.021118,1259.417236 
	C1097.749756,1286.106934 1099.477905,1312.852417 1099.117920,1339.570068 
	C1099.065796,1343.430420 1098.036133,1344.349609 1094.422852,1344.072632 
	C1089.479126,1343.693604 1082.738892,1345.744751 1079.992798,1343.231445 
	C1076.843994,1340.349609 1079.049805,1333.541870 1079.039185,1328.449585 
	C1078.965210,1292.822510 1079.055908,1257.194824 1078.914429,1221.568115 
	C1078.900146,1217.973145 1079.547607,1216.366455 1083.444214,1216.938965 
	C1085.725830,1217.274170 1088.096802,1217.000000 1090.427612,1217.000000 
	C1099.000000,1217.000000 1099.000000,1217.000000 1099.000000,1225.897705 
z"/>
<path fill="#FFFFFF" opacity="1.000000" stroke="none" 
	d="
M1525.009277,1217.000000 
	C1535.000000,1217.000000 1535.000000,1217.000000 1535.000000,1226.488892 
	C1535.000000,1228.918091 1535.000000,1231.347412 1535.000000,1235.119019 
	C1538.510986,1230.983154 1540.575439,1227.373413 1543.726318,1224.590576 
	C1551.572876,1217.660400 1560.569946,1214.709351 1570.921997,1214.954956 
	C1579.995972,1215.170288 1580.017090,1215.000000 1579.991943,1223.911133 
	C1579.981201,1227.727051 1581.232788,1232.464722 1579.437256,1235.094849 
	C1577.700562,1237.638916 1572.894409,1234.950195 1569.420166,1234.845337 
	C1556.806641,1234.464844 1546.882202,1238.932495 1539.992798,1249.587402 
	C1537.429077,1253.552612 1535.986084,1257.954590 1535.990112,1262.775513 
	C1536.011230,1288.410156 1535.931885,1314.045044 1536.082031,1339.678833 
	C1536.101929,1343.068970 1535.449463,1344.415039 1531.811035,1344.078369 
	C1528.015015,1343.727295 1524.118774,1343.644775 1520.343994,1344.095215 
	C1516.187500,1344.591431 1515.924927,1342.699341 1515.933838,1339.330688 
	C1516.037109,1300.213135 1516.075195,1261.094971 1515.890503,1221.978027 
	C1515.870728,1217.786255 1516.909058,1216.251465 1521.028198,1216.969971 
	C1522.159058,1217.167236 1523.353394,1217.000000 1525.009277,1217.000000 
z"/>
<path fill="#000000" opacity="1.000000" stroke="none" 
	d="
M1321.000000,683.000000 
	C1321.000000,792.164062 1320.969360,900.828186 1321.107666,1009.492065 
	C1321.113403,1014.011536 1320.021851,1015.109497 1315.495483,1015.106873 
	C1105.833984,1014.983948 896.172363,1014.984070 686.510803,1015.105835 
	C681.998352,1015.108459 680.886963,1014.031616 680.891724,1009.498413 
	C681.026062,880.168335 681.025757,750.838074 680.892700,621.507996 
	C680.888062,616.988831 681.977966,615.890564 686.504395,615.893188 
	C896.165955,616.016113 1105.827637,616.015930 1315.489136,615.894165 
	C1320.001587,615.891541 1321.177246,616.960022 1321.117065,621.502930 
	C1320.848145,641.832275 1321.000000,662.167114 1321.000000,683.000000 
z"/>
<path fill="#000000" opacity="1.000000" stroke="none" 
	d="
M1272.987671,1257.228027 
	C1273.253418,1258.226440 1273.591675,1258.786133 1273.742554,1259.392578 
	C1276.381226,1269.998779 1276.376221,1270.000000 1265.452881,1270.000000 
	C1246.623657,1270.000000 1227.793457,1269.906860 1208.965698,1270.070679 
	C1204.692505,1270.107788 1203.468994,1269.797363 1204.773682,1264.743774 
	C1208.078857,1251.939575 1214.428833,1242.159058 1226.816895,1236.578003 
	C1238.964600,1231.105103 1259.212891,1233.619385 1267.746338,1247.099487 
	C1269.738525,1250.246338 1271.510986,1253.422241 1272.987671,1257.228027 
z"/>
<path fill="#000000" opacity="1.000000" stroke="none" 
	d="
M1372.705322,1252.735840 
	C1379.102661,1241.531982 1388.200562,1235.011108 1400.847778,1234.018799 
	C1421.763916,1232.377319 1433.718872,1245.300415 1437.787598,1262.437622 
	C1439.256714,1268.624756 1438.289062,1269.999878 1432.125854,1269.999878 
	C1412.162231,1270.000122 1392.195923,1269.822998 1372.236938,1270.125977 
	C1367.318604,1270.200684 1366.517334,1268.826294 1367.956177,1264.560425 
	C1369.279053,1260.638062 1369.993774,1256.500610 1372.705322,1252.735840 
z"/>
<path fill="#000000" opacity="1.000000" stroke="none" 
	d="
M937.599731,1298.909424 
	C944.728516,1290.815674 954.388367,1289.665039 963.723816,1288.071533 
	C973.287170,1286.438721 983.071106,1286.157593 992.447021,1283.298340 
	C993.590149,1282.949707 995.896729,1281.879395 995.898987,1284.322388 
	C995.908813,1294.684448 997.543762,1305.286865 990.901184,1314.666992 
	C984.424622,1323.812500 975.386597,1328.018066 964.639221,1328.940308 
	C957.077637,1329.588989 949.645386,1328.484985 943.042175,1324.484375 
	C935.407532,1319.859009 932.909973,1310.274658 936.546814,1300.949097 
	C936.781921,1300.346191 937.052734,1299.757202 937.599731,1298.909424 
z"/>
<path fill="#FFFFFF" opacity="1.000000" stroke="none" 
	d="
M1157.195801,927.300659 
	C1151.132446,931.243469 1146.832520,936.718933 1141.086548,940.573120 
	C1124.029419,952.014343 1102.769531,939.141052 1100.855835,922.141724 
	C1099.599365,910.980652 1103.606323,903.013306 1112.092529,896.258667 
	C1118.895630,890.843750 1125.092651,884.670959 1131.611328,878.894104 
	C1145.855835,866.270264 1160.254028,853.817078 1174.353760,841.034058 
	C1182.990723,833.203735 1191.624878,825.380615 1200.594971,817.936157 
	C1202.368286,816.464478 1202.133423,815.377380 1200.536255,813.992065 
	C1192.862061,807.336060 1185.216553,800.646973 1177.595337,793.930420 
	C1171.061523,788.172241 1164.601929,782.330078 1158.061279,776.579651 
	C1144.640747,764.780579 1131.046753,753.173767 1117.809326,741.173279 
	C1111.385742,735.349976 1103.909912,730.246887 1101.081787,721.309021 
	C1096.044922,705.390747 1105.873291,688.347473 1123.240356,686.993958 
	C1132.633667,686.261902 1139.994751,689.808777 1146.926147,696.206482 
	C1164.170288,712.123047 1181.957275,727.451843 1199.532593,743.009399 
	C1210.958740,753.123718 1222.403076,763.217529 1233.826172,773.335266 
	C1242.798218,781.281921 1251.789429,789.207458 1260.700928,797.221741 
	C1271.597656,807.021423 1271.356812,825.074524 1260.774658,834.833435 
	C1246.042969,848.419373 1230.941040,861.571899 1215.869751,874.770691 
	C1209.695923,880.177551 1203.630249,885.716736 1197.460327,891.139832 
	C1184.001221,902.969788 1170.766724,915.055481 1157.195801,927.300659 
z"/>
<path fill="#FFFFFF" opacity="1.000000" stroke="none" 
	d="
M812.753357,898.255127 
	C798.940063,886.105713 785.362610,874.231262 771.827881,862.308411 
	C765.416199,856.660217 759.069580,850.937683 752.724976,845.213928 
	C748.565002,841.460938 744.263428,837.837341 740.371216,833.820557 
	C730.265076,823.390991 730.857239,808.514526 739.127441,799.484985 
	C748.506653,789.244690 759.369263,780.569153 769.898621,771.550293 
	C776.638794,765.777222 783.075989,759.651917 789.736206,753.783569 
	C803.145203,741.969055 816.643311,730.255676 830.045532,718.433594 
	C836.952148,712.341309 843.582153,705.927612 850.620300,699.995117 
	C855.519592,695.865479 860.076904,691.450378 866.306519,688.771057 
	C879.158936,683.243225 897.689758,691.029724 900.989746,707.661438 
	C902.934753,717.464111 900.369934,725.692871 892.938477,732.643799 
	C878.542175,746.108948 863.664001,759.014832 848.716125,771.853455 
	C841.605225,777.960999 834.811157,784.435913 827.807678,790.670410 
	C819.475769,798.087341 811.083069,805.436035 802.694763,812.789246 
	C800.286804,814.900085 799.048218,815.934265 802.888611,818.741516 
	C810.018311,823.953247 816.206482,830.444580 822.850525,836.331116 
	C836.973328,848.843567 851.177673,861.264099 865.268127,873.812683 
	C873.139587,880.822815 880.561829,888.368958 888.733398,894.999451 
	C894.211426,899.444336 898.456787,904.333618 900.588562,911.052734 
	C905.865662,927.685669 892.431396,944.400208 876.202332,944.869873 
	C869.374329,945.067505 862.887878,942.800903 857.589600,938.060242 
	C847.913269,929.402405 838.261658,920.716858 828.560364,912.087097 
	C823.418640,907.513306 818.193970,903.032776 812.753357,898.255127 
z"/>
<path fill="#FFFFFF" opacity="1.000000" stroke="none" 
	d="
M948.267517,880.332886 
	C954.519287,864.301880 960.551147,848.605835 966.559998,832.901062 
	C974.055420,813.311462 981.490967,793.698853 989.026855,774.124939 
	C998.174927,750.363403 1007.471375,726.658813 1016.548157,702.870300 
	C1019.139954,696.077576 1021.351196,689.216064 1026.626343,683.818604 
	C1034.825562,675.429260 1047.677856,674.184998 1058.167847,680.029663 
	C1067.759155,685.373657 1073.256104,698.179321 1070.132812,708.769531 
	C1065.543945,724.328857 1058.898438,739.089111 1053.268555,754.239624 
	C1046.018188,773.751099 1038.450562,793.144897 1030.992798,812.579102 
	C1021.870972,836.349060 1012.709351,860.103760 1003.587891,883.873840 
	C996.703491,901.814087 989.810913,919.751343 983.008789,937.722839 
	C979.338562,947.419434 972.524902,954.098999 962.486938,955.776855 
	C951.712158,957.577820 942.347656,954.265503 935.776489,944.474182 
	C930.061768,935.958984 930.339905,927.532471 933.888916,918.456116 
	C938.786926,905.929871 943.337830,893.267822 948.267517,880.332886 
z"/>
</svg>